<svg width="40" height="40" viewBox="0 0 40 40" fill="none" xmlns="http://www.w3.org/2000/svg">
<rect width="40" height="40" rx="20" fill="#FCFCFC"/>
<path d="M29.14 25.53C28.396 24.78 26.594 23.686 25.719 23.245C24.58 22.671 24.486 22.625 23.591 23.29C22.994 23.734 22.597 24.13 21.898 23.981C21.198 23.832 19.68 22.991 18.35 21.666C17.02 20.34 16.131 18.777 15.982 18.081C15.832 17.384 16.235 16.991 16.675 16.393C17.295 15.55 17.248 15.409 16.718 14.27C16.305 13.384 15.178 11.598 14.426 10.857C13.621 10.062 13.621 10.203 13.102 10.418C12.6795 10.5959 12.2741 10.8121 11.891 11.064C11.141 11.562 10.725 11.976 10.434 12.598C10.142 13.22 10.012 14.678 11.515 17.409C13.018 20.14 14.073 21.536 16.255 23.713C18.439 25.89 20.117 27.061 22.571 28.437C25.607 30.137 26.771 29.806 27.395 29.515C28.019 29.225 28.435 28.812 28.935 28.062C29.1872 27.6794 29.4034 27.2744 29.581 26.852C29.797 26.336 29.938 26.336 29.141 25.531L29.14 25.53Z" stroke="#000929" stroke-width="1.5"/>
</svg>
