<svg width="32" height="32" viewBox="0 0 32 32" fill="none" xmlns="http://www.w3.org/2000/svg">
<g clip-path="url(#clip0_159_1349)">
<path d="M16 7C16.9283 7 17.8185 6.63125 18.4749 5.97487C19.1313 5.3185 19.5 4.42826 19.5 3.5C19.5 2.57174 19.1313 1.6815 18.4749 1.02513C17.8185 0.368749 16.9283 0 16 0C15.0717 0 14.1815 0.368749 13.5251 1.02513C12.8687 1.6815 12.5 2.57174 12.5 3.5C12.5 4.42826 12.8687 5.3185 13.5251 5.97487C14.1815 6.63125 15.0717 7 16 7Z" fill="#7065F0"/>
<path d="M19 8H13C11.9401 8.00317 10.9245 8.42561 10.1751 9.17507C9.42561 9.92453 9.00317 10.9401 9 12V18.72C9 19.3987 9.52667 19.9747 10.204 20C10.372 20.0061 10.5395 19.9783 10.6965 19.9181C10.8536 19.858 10.9968 19.7669 11.1178 19.6501C11.2388 19.5334 11.335 19.3934 11.4007 19.2387C11.4663 19.0839 11.5001 18.9175 11.5 18.7493V12.5187C11.4975 12.3891 11.5443 12.2635 11.6309 12.1672C11.7176 12.0709 11.8376 12.0111 11.9667 12C12.0351 11.9954 12.1037 12.005 12.1683 12.028C12.2328 12.0511 12.292 12.0872 12.342 12.1341C12.392 12.181 12.4318 12.2377 12.459 12.3006C12.4862 12.3636 12.5002 12.4314 12.5 12.5V30.5613C12.5 30.9425 12.6514 31.3081 12.921 31.5777C13.1905 31.8472 13.5561 31.9987 13.9373 31.9987C14.3185 31.9987 14.6841 31.8472 14.9537 31.5777C15.2232 31.3081 15.3747 30.9425 15.3747 30.5613V21.6453C15.3724 21.4837 15.4313 21.3272 15.5396 21.2073C15.648 21.0873 15.7977 21.0128 15.9587 20.9987C16.0442 20.993 16.13 21.005 16.2107 21.0339C16.2914 21.0627 16.3653 21.1079 16.4278 21.1665C16.4903 21.2252 16.5401 21.2961 16.5741 21.3747C16.6081 21.4534 16.6255 21.5383 16.6253 21.624V30.5613C16.6253 30.9425 16.7768 31.3081 17.0463 31.5777C17.3159 31.8472 17.6815 31.9987 18.0627 31.9987C18.4439 31.9987 18.8095 31.8472 19.079 31.5777C19.3486 31.3081 19.5 30.9425 19.5 30.5613V12.5173C19.4982 12.3883 19.5453 12.2633 19.6319 12.1676C19.7184 12.0718 19.8381 12.0124 19.9667 12.0013C20.0351 11.9968 20.1037 12.0063 20.1683 12.0294C20.2328 12.0525 20.292 12.0886 20.342 12.1355C20.392 12.1823 20.4318 12.239 20.459 12.302C20.4862 12.3649 20.5002 12.4328 20.5 12.5013V18.7213C20.5 19.3987 21.0267 19.976 21.704 20.0013C21.8721 20.0076 22.0397 19.9799 22.1968 19.9199C22.3538 19.8598 22.4972 19.7687 22.6182 19.6519C22.7392 19.5351 22.8354 19.3951 22.901 19.2402C22.9666 19.0854 23.0003 18.9188 23 18.7507V12C22.9968 10.9401 22.5744 9.92453 21.8249 9.17507C21.0755 8.42561 20.0599 8.00317 19 8Z" fill="#7065F0"/>
</g>
<defs>
<clipPath id="clip0_159_1349">
<rect width="32" height="32" fill="white"/>
</clipPath>
</defs>
</svg>
