<svg width="134" height="40" viewBox="0 0 134 40" fill="none" xmlns="http://www.w3.org/2000/svg">
<g clip-path="url(#clip0_1_761)">
<path d="M45.36 27V13H54.62V15.26H48.16V18.8H54.02V20.98H48.16V24.74H54.62V27H45.36ZM56.3592 27V24.76L61.3792 19.24H56.4192V16.92H64.5992V19.18L59.5192 24.68H64.6992V27H56.3592ZM68.1825 31.4L70.6025 25.88H70.0025L65.9625 16.92H69.0025L71.8625 23.3L74.3625 16.92H77.3425L71.1425 31.4H68.1825ZM79.11 27V13H84.41C85.5433 13 86.4767 13.1933 87.21 13.58C87.9567 13.9667 88.51 14.4867 88.87 15.14C89.2433 15.78 89.43 16.5 89.43 17.3C89.43 18.0467 89.25 18.7467 88.89 19.4C88.5433 20.0533 87.9967 20.58 87.25 20.98C86.5033 21.3667 85.55 21.56 84.39 21.56H81.91V27H79.11ZM86.35 27L83.49 20.86H86.53L89.55 27H86.35ZM81.91 19.52H84.25C85.0367 19.52 85.6167 19.3267 85.99 18.94C86.3767 18.5533 86.57 18.04 86.57 17.4C86.57 16.7733 86.3833 16.2733 86.01 15.9C85.6367 15.5267 85.0433 15.34 84.23 15.34H81.91V19.52ZM96.0003 27.24C94.987 27.24 94.087 27.0267 93.3003 26.6C92.527 26.16 91.9203 25.5533 91.4803 24.78C91.0403 23.9933 90.8203 23.0867 90.8203 22.06C90.8203 21.02 91.0336 20.1 91.4603 19.3C91.9003 18.4867 92.507 17.8467 93.2803 17.38C94.067 16.9133 94.9803 16.68 96.0203 16.68C97.0203 16.68 97.8936 16.9 98.6403 17.34C99.4003 17.78 99.987 18.3733 100.4 19.12C100.827 19.8667 101.04 20.7267 101.04 21.7C101.04 21.8333 101.034 21.98 101.02 22.14C101.02 22.3 101.007 22.4733 100.98 22.66H92.8203V20.96H98.2003C98.1603 20.3467 97.9336 19.86 97.5203 19.5C97.1203 19.1267 96.6203 18.94 96.0203 18.94C95.567 18.94 95.1536 19.0467 94.7803 19.26C94.407 19.4733 94.1136 19.7867 93.9003 20.2C93.687 20.6133 93.5803 21.14 93.5803 21.78V22.36C93.5803 22.88 93.6803 23.34 93.8803 23.74C94.0803 24.1267 94.3603 24.4267 94.7203 24.64C95.0803 24.8533 95.5003 24.96 95.9803 24.96C96.4603 24.96 96.8536 24.86 97.1603 24.66C97.4803 24.46 97.7203 24.2 97.8803 23.88H100.74C100.554 24.5067 100.234 25.0733 99.7803 25.58C99.3403 26.0867 98.8003 26.4933 98.1603 26.8C97.5203 27.0933 96.8003 27.24 96.0003 27.24ZM103.25 27V16.92H105.71L105.91 18.56C106.216 18 106.65 17.5467 107.21 17.2C107.783 16.8533 108.47 16.68 109.27 16.68C110.096 16.68 110.796 16.86 111.37 17.22C111.943 17.5667 112.376 18.0733 112.67 18.74C112.976 19.4067 113.13 20.2267 113.13 21.2V27H110.35V21.46C110.35 20.6867 110.183 20.0933 109.85 19.68C109.53 19.2533 109.016 19.04 108.31 19.04C107.883 19.04 107.496 19.1467 107.15 19.36C106.803 19.56 106.53 19.8533 106.33 20.24C106.143 20.6133 106.05 21.0733 106.05 21.62V27H103.25ZM120.272 27C119.552 27 118.918 26.8867 118.372 26.66C117.838 26.4333 117.425 26.06 117.132 25.54C116.838 25.02 116.692 24.3133 116.692 23.42V19.26H114.952V16.92H116.692L116.992 14.14H119.492V16.92H122.112V19.26H119.492V23.44C119.492 23.88 119.585 24.1867 119.772 24.36C119.972 24.5333 120.305 24.62 120.772 24.62H122.092V27H120.272Z" fill="#100A55"/>
<g clip-path="url(#clip1_1_761)">
<path d="M33.3333 15.6134L26.2226 10.0827C25.5986 9.59725 24.8306 9.33368 24.04 9.33368C23.2494 9.33368 22.4813 9.59725 21.8573 10.0827L14.7453 15.6134C14.3179 15.9458 13.9721 16.3714 13.7343 16.8578C13.4965 17.3443 13.373 17.8786 13.3733 18.42V28.02C13.3733 28.7273 13.6542 29.4056 14.1543 29.9057C14.6544 30.4058 15.3327 30.6867 16.04 30.6867H32.04C32.7472 30.6867 33.4255 30.4058 33.9256 29.9057C34.4257 29.4056 34.7066 28.7273 34.7066 28.02V18.42C34.7066 17.3227 34.2 16.2867 33.3333 15.6134Z" fill="#7065F0" stroke="#7065F0" stroke-width="3" stroke-linecap="round" stroke-linejoin="round"/>
<path d="M29.3333 24C26.3866 25.7773 21.6106 25.7773 18.6666 24" stroke="#F9FAFB" stroke-width="3" stroke-linecap="round" stroke-linejoin="round"/>
</g>
</g>
<defs>
<clipPath id="clip0_1_761">
<rect width="134" height="40" fill="white"/>
</clipPath>
<clipPath id="clip1_1_761">
<rect width="32" height="32" fill="white" transform="translate(8 4)"/>
</clipPath>
</defs>
</svg>
