<svg width="24" height="24" viewBox="0 0 24 24" fill="none" xmlns="http://www.w3.org/2000/svg">
<path fillRule="evenodd" clip-rule="evenodd" d="M22.5 12.063C22.5 6.26399 17.798 1.56299 12 1.56299C6.202 1.56299 1.5 6.26299 1.5 12.063C1.5 17.303 5.34 21.647 10.36 22.436V15.099H7.692V12.062H10.358V9.74999C10.358 7.11999 11.926 5.66499 14.324 5.66499C15.474 5.66499 16.675 5.86999 16.675 5.86999V8.45399H15.351C14.047 8.45399 13.639 9.26399 13.639 10.094V12.064H16.551L16.086 15.1H13.64V22.437C18.66 21.649 22.499 17.306 22.499 12.064L22.5 12.063Z" fill="currentColor"/>
</svg>
