<svg width="24" height="24" viewBox="0 0 24 24" fill="none" xmlns="http://www.w3.org/2000/svg">
<path d="M16.375 3.25C17.5343 3.25343 18.6451 3.71547 19.4648 4.5352C20.2845 5.35493 20.7466 6.46573 20.75 7.625V16.375C20.7466 17.5343 20.2845 18.6451 19.4648 19.4648C18.6451 20.2845 17.5343 20.7466 16.375 20.75H7.625C6.46581 20.7463 5.35516 20.2842 4.53549 19.4645C3.71581 18.6448 3.25369 17.5342 3.25 16.375V7.625C3.25343 6.46573 3.71547 5.35493 4.5352 4.5352C5.35493 3.71547 6.46573 3.25343 7.625 3.25H16.375ZM16.375 1.5H7.625C4.256 1.5 1.5 4.256 1.5 7.625V16.375C1.5 19.744 4.256 22.5 7.625 22.5H16.375C19.744 22.5 22.5 19.744 22.5 16.375V7.625C22.5 4.256 19.744 1.5 16.375 1.5Z" fill="currentColor"/>
<path d="M17.688 7.62501C17.5126 7.62985 17.338 7.59949 17.1745 7.53571C17.011 7.47192 16.862 7.37602 16.7362 7.25367C16.6104 7.13131 16.5105 6.98498 16.4422 6.82333C16.3739 6.66168 16.3387 6.48799 16.3387 6.31251C16.3387 6.13704 16.3739 5.96334 16.4422 5.80169C16.5105 5.64004 16.6104 5.49371 16.7362 5.37136C16.862 5.249 17.011 5.1531 17.1745 5.08932C17.338 5.02554 17.5126 4.99517 17.688 5.00001C18.0298 5.00945 18.3545 5.15187 18.5929 5.39698C18.8313 5.64209 18.9647 5.97056 18.9647 6.31251C18.9647 6.65447 18.8313 6.98293 18.5929 7.22804C18.3545 7.47316 18.0298 7.61558 17.688 7.62501Z" fill="currentColor"/>
<path d="M12 8.5C12.4596 8.5 12.9148 8.59053 13.3394 8.76642C13.764 8.94231 14.1499 9.20012 14.4749 9.52513C14.7999 9.85013 15.0577 10.236 15.2336 10.6606C15.4095 11.0852 15.5 11.5404 15.5 12C15.5 12.4596 15.4095 12.9148 15.2336 13.3394C15.0577 13.764 14.7999 14.1499 14.4749 14.4749C14.1499 14.7999 13.764 15.0577 13.3394 15.2336C12.9148 15.4095 12.4596 15.5 12 15.5C11.0717 15.5 10.1815 15.1313 9.52513 14.4749C8.86875 13.8185 8.5 12.9283 8.5 12C8.5 11.0717 8.86875 10.1815 9.52513 9.52513C10.1815 8.86875 11.0717 8.5 12 8.5ZM12 6.75C10.6076 6.75 9.27226 7.30312 8.28769 8.28769C7.30312 9.27226 6.75 10.6076 6.75 12C6.75 13.3924 7.30312 14.7277 8.28769 15.7123C9.27226 16.6969 10.6076 17.25 12 17.25C13.3924 17.25 14.7277 16.6969 15.7123 15.7123C16.6969 14.7277 17.25 13.3924 17.25 12C17.25 10.6076 16.6969 9.27226 15.7123 8.28769C14.7277 7.30312 13.3924 6.75 12 6.75Z" fill="currentColor"/>
</svg>
