<svg width="24" height="24" viewBox="0 0 24 24" fill="none" xmlns="http://www.w3.org/2000/svg">
<path d="M20.82 1.5H3.294C2.337 1.5 1.5 2.19 1.5 3.135V20.701C1.5 21.652 2.337 22.5 3.294 22.5H20.815C21.778 22.5 22.5 21.646 22.5 20.7V3.136C22.506 2.19 21.778 1.501 20.82 1.501V1.5ZM8.01 19.005H5V9.65H8.01V19.005ZM6.61 8.228H6.588C5.625 8.228 5.002 7.512 5.002 6.615C5.002 5.7 5.642 5 6.626 5C7.61 5 8.213 5.695 8.234 6.614C8.234 7.511 7.61 8.227 6.609 8.227L6.61 8.228ZM19.005 19.005H15.996V13.89C15.996 12.665 15.558 11.827 14.47 11.827C13.638 11.827 13.146 12.39 12.927 12.938C12.845 13.135 12.823 13.403 12.823 13.677V19.005H9.815V9.65H12.823V10.951C13.261 10.328 13.945 9.431 15.536 9.431C17.511 9.431 19.005 10.732 19.005 13.539V19.005Z" fill="white"/>
</svg>
